/* XPM */
static char *e48b1ba0ee8141bbc73d06a468a187d9yenDq0v7jYrywujK[] = {
/* columns rows colors chars-per-pixel */
"64 64 256 2 ",
"   c #070A06",
".  c #140500",
"X  c #1A0E03",
"o  c #180A08",
"O  c #091309",
"+  c #1C1402",
"@  c #1B120B",
"#  c #181706",
"$  c #0A0814",
"%  c #140B17",
"&  c #0A1517",
"*  c #1A1817",
"=  c #2C0E00",
"-  c #280A04",
";  c #350B00",
":  c #251401",
">  c #2B1402",
",  c #241D01",
"<  c #2C1B01",
"1  c #24150C",
"2  c #251D0C",
"3  c #2C1B0A",
"4  c #29150C",
"5  c #341501",
"6  c #3C1500",
"7  c #331C02",
"8  c #3C1B00",
"9  c #3B1D0C",
"0  c #35190A",
"q  c #261913",
"w  c #341B13",
"e  c #1D2401",
"r  c #1C261D",
"t  c #2B2302",
"y  c #282507",
"u  c #342302",
"i  c #3C2300",
"p  c #362A02",
"a  c #3D2A02",
"s  c #3A260C",
"d  c #382715",
"f  c #383010",
"g  c #161627",
"h  c #0B0E24",
"j  c #3B3026",
"k  c #122126",
"l  c #431601",
"z  c #431C00",
"x  c #4B1D01",
"c  c #471D0A",
"v  c #531D02",
"b  c #5C1A00",
"n  c #470800",
"m  c #432301",
"M  c #4B2401",
"N  c #442A01",
"B  c #4C2B01",
"V  c #43230C",
"C  c #4A250B",
"Z  c #442B0B",
"A  c #4B2D0B",
"S  c #532501",
"D  c #5A2402",
"F  c #542B00",
"G  c #5C2C01",
"H  c #582B0A",
"J  c #4C3202",
"K  c #483207",
"L  c #533201",
"P  c #5C3303",
"I  c #5C3A01",
"U  c #56330C",
"Y  c #472612",
"T  c #582C14",
"R  c #503617",
"E  c #622400",
"W  c #632C01",
"Q  c #6B2C00",
"!  c #65250B",
"~  c #643402",
"^  c #6B3300",
"/  c #643C02",
"(  c #6C3B02",
")  c #673A0C",
"_  c #723302",
"`  c #743B02",
"'  c #7B3D04",
"]  c #7B3D0A",
"[  c #773807",
"{  c #6A3C18",
"}  c #783E14",
"|  c #542211",
" . c #584315",
".. c #6C4202",
"X. c #6C430A",
"o. c #674507",
"O. c #734302",
"+. c #7B4403",
"@. c #7C4A02",
"#. c #75430B",
"$. c #7B450C",
"%. c #734B0D",
"&. c #7C4A0B",
"*. c #744807",
"=. c #775107",
"-. c #6A4415",
";. c #774815",
":. c #7B5313",
">. c #6E510D",
",. c #724923",
"<. c #833D00",
"1. c #873B05",
"2. c #923F00",
"3. c #844402",
"4. c #8A4501",
"5. c #834B02",
"6. c #8C4C01",
"7. c #83440A",
"8. c #844C0C",
"9. c #8B4C0B",
"0. c #8B460D",
"q. c #934401",
"w. c #944D01",
"e. c #9B4C01",
"r. c #944C0C",
"t. c #974909",
"y. c #835302",
"u. c #8D5202",
"i. c #8D5A02",
"p. c #8B530C",
"a. c #87550A",
"s. c #945302",
"d. c #9C5401",
"f. c #945902",
"g. c #9C5A02",
"h. c #94550B",
"j. c #9B540B",
"k. c #945A0C",
"l. c #9C5B0B",
"z. c #844511",
"x. c #834B12",
"c. c #874A17",
"v. c #9C4D13",
"b. c #8B5314",
"n. c #875417",
"m. c #945313",
"M. c #9B5C12",
"N. c #995314",
"B. c #A34D01",
"V. c #AA4C00",
"C. c #A54B06",
"Z. c #B44D00",
"A. c #A35401",
"S. c #AC5401",
"D. c #A45B02",
"F. c #AB5C01",
"G. c #A3530A",
"H. c #A45B0A",
"J. c #AC5C0A",
"K. c #AB540C",
"L. c #B45502",
"P. c #BA5501",
"I. c #B45C01",
"U. c #BB5C01",
"Y. c #B45C0B",
"T. c #BA5D0C",
"R. c #B3520C",
"E. c #A14916",
"W. c #AD5B13",
"Q. c #A75915",
"!. c #B45B14",
"~. c #BE4F18",
"^. c #9C6202",
"/. c #9C610C",
"(. c #966305",
"). c #966909",
"_. c #A46302",
"`. c #AC6301",
"'. c #AC6A01",
"]. c #A5630B",
"[. c #AB620C",
"{. c #A96A0A",
"}. c #B46302",
"|. c #BC6302",
" X c #B36B02",
".X c #BC6B02",
"XX c #B4640B",
"oX c #BA640B",
"OX c #B46A0C",
"+X c #BC6B0B",
"@X c #BB7201",
"#X c #B9730A",
"$X c #AD6413",
"%X c #A96616",
"&X c #B46512",
"*X c #BB6313",
"=X c #B46C13",
"-X c #BC6B13",
";X c #B8691A",
":X c #B77412",
">X c #AA770A",
",X c #AB5B24",
"<X c #B36524",
"1X c #C25C02",
"2X c #C85B07",
"3X c #C45C13",
"4X c #D05C11",
"5X c #C46402",
"6X c #CB6401",
"7X c #C36C02",
"8X c #CB6B02",
"9X c #C4640B",
"0X c #CC650B",
"qX c #C36C0C",
"wX c #CB6C0B",
"eX c #D26403",
"rX c #D36C01",
"tX c #DA6E01",
"yX c #D36D0C",
"uX c #DA6B0B",
"iX c #C37302",
"pX c #CC7202",
"aX c #CB7A02",
"sX c #C5720B",
"dX c #CB740B",
"fX c #CB7B0A",
"gX c #C37907",
"hX c #D47303",
"jX c #DA7302",
"kX c #D37B03",
"lX c #DB7B02",
"zX c #D4740C",
"xX c #DC740A",
"cX c #D87A0B",
"vX c #C46413",
"bX c #C46B12",
"nX c #CA6A13",
"mX c #D86A14",
"MX c #CC7414",
"NX c #CD7B13",
"BX c #C77418",
"VX c #D37312",
"CX c #D47C13",
"ZX c #D97715",
"AX c #E37B0C",
"SX c #E67604",
"DX c #E57B16",
"FX c #E16E04",
"GX c #CE7522",
"HX c #E37F22",
"JX c #D68207",
"KX c #D88317",
"LX c #C68100",
"PX c #E98206",
"IX c #E18319",
"UX c #D58423",
/* pixels */
"* H N P W B T F H G F g B L G P F P ! S ~ @ A ! J B T I A A U F < 0 Q D I F K H M Q r 0 ( L v J T F W H D T % ~ L W B W D K D B ",
"G xXcXzXjXfXhX8XMXcX7Xv |.kXVXwXfXiXVXfXiXM  XCXkXxXmXjXVX8XZXPXI *.KXsXaXpXiXjXZXFX~ w.SXBXmXgX7XLXaXdXJXf.M IX7XxXsXrXhXKXcX}.",
"B qXA.w.S.A.A.A.u.D._.- =X{.d.s.A.A.A.e.H.5 OXA.6.d.e.d.g.s.w.`.D W MXe.e.S.j.S.6..XM p.7Xw.S.g.L.g.e.e.I.] 8 zXf.B.w.S.S.w.S.6.",
"J sX&X/._.d.g.].D.L.}.; OXJ.A.`.S.D.g.`.;X5 +XXXH.D.A.D.g.D.G.+XW ` NXF.H.W.M.d.d.7Xv u.7XG.L.S.L.j.J.J.}.O.J hXk.`.J.D.g.G.'.p.",
"v I.L.g.D.!._.S.].Q.D.l G.<XH.g.J./.g.D.k.5 A._.C.S.D.W.S.I.V.I.M I _.g.D.S.[.}.M.XXD @.F.,XH.D.`.(.D.g.$X( i U.M.S.S.H.l.Y.F.4.",
"@ 9 ; > 7 w O 8 , - <   > 3 : + 5 & 5 = 3 % 8 > > , , % , s > > @ # 5 < > 5 @ 1 X < O # < 2 + < 2 @ 5 : 0 4 O 8 d = 6 q   6 > 4 ",
"}.%X|.-XoX3.B 7X7X2X6X#X4X1X3XdXS.i P.9X-X*XI.BXvX.XH.b D.XXoXqX6X.X1X|.*X.X) P lX0X6X.X5X8X|.rXS 1.VXOXL.5X#X|.`.oXpX:.F 7XOX{.",
"U.%XI.L.9X6.V xXg.Y.S.).R.`.!.D.OX# 9X}.D.7XD.J.S.'./.n :XOXF.`.F._.Y.`.J.@XG ) aXR.}.`.L.I.H.7Xp 9.8Xg.;XP.g.[.}.L.6X-.M hXY.}.",
"e.k.d.q.;X;.p pX6.Q.d.d.i.d.G.s.%X+ oX^.s.A.(.e.e.D.g.l I.].d.d.d.j.j.e.b.oXB / iXe.d.g.B.s.i.}.p r. Xi.l.A.d.N.e.l.`.,.z BXs.B.",
"9XXX|.9XnX1.G AX|.3XU.+XXX|.T.7XI.M P.7X9XY.}.nXoX X_.F I. X`..XU.|.|.5X;X0X_ ' cXU.oX}.0XbX`.eXx E.dX}.P.|.+X|.5X|.U.5.W 8X|.9X",
"d m z i B 5 X x i z M s Z B z m m + 8 m B j J 8 Y M s $ c V 9 C N a N M Z l @ > M V d i x m 7 G X w N 8 S Z f M Y m x q . M m V ",
"5 9.w.&.+.9.n.3.y.7.5.5 ` 8.7.5.5.%.x.6.7.> 3.x.3.6.9.;.w.s.3.w.z M z.7.b.6.:.5.8.8.m ~ r.n.&.4.y.x.5.4.r.A s w.&.5.6.n.&.6.5.( ",
"^ xXrXsXpX8X8XwXiXyX7Xl 9XdX8XpX8X7XBXzX9Xx rXNXiX8XiXiX7XpXiXlXQ ' DX5X8XhXiXpXwXzXW A.AXqXwX8X8XpX.XrXDX5.W AX+X8XrXpX8X8XhX`.",
"B |.w.u.D.d.w.s.6.d.g.X ;X_.e.s.d.s.j.e.l.7 OXd.s.C.r.A.w.e.m.I.B I MX6.e.d.w.d.6. Xi 5.|.3.d.g.d.l.6.e.XX..8 iXu.B.e.w.s.w.J.@.",
"P ZXOX}.L.$X}.|.&X|.`.d 0X X}.oXT.D.T.*XOX8 oXqXF.2XY.8XoXU.[.eXF ..xXF.5X&XJ.Y.XXpXB j.jX$XT.F.J.oX}.Y.I.5.G JX_.P.}.}.}.XX6Xf.",
"< 4.( +.<.,.+.' ] ' O.& <.O.+.` 1.=.7.` ..+ ] <.o.7.X.@.X.O.-.6.3 d q.( 3...@.5.` 6.* H q.;.' O.8.+.O.;.7.U - 7.#.1.;.+.+.;.1.P ",
"c V z i i u   D N 6 s L y V i m M $ z i c C z Y M z a h c M x V V d z m z H : : B u M a u z a D # = M 8 M z A c m i M y g z m V ",
"pXfXhXJXCXd.~ DXkXmXVXtXBXuXVXxXMXz |.KXzXpXaXpXzXzX@XF oXkXhXsXtXpXhXcXMXGXO...PXwXFXcXVXuXpXFXG C.KXfXZX8XiXhXpXKXcX3.E PXKXdX",
"S.j.q.e.Y.] z zXw.G.l.d.].A.d.d.H.: |.H.e.S.l.B.w.G._.= $XJ.A.s.S.g.S.d.e.XXD ) .Xw.S.g.w.d.d.XXs 6.|.w.K.K.A.A.A.r.`.X.x gX6.S.",
"e.M.M.A.oX%.B kXA.H.D.S.F.B.D.H.{., |.].D.S.p.J.F.R.}.l oX!.S.Y.f.k.D.H.D. XG #.dXA.A.G.H.}.J.XXp s.gXg.G.S.g.l.S.Q.qX+.v CXV.I.",
"`.D.D.L.T.} D U.S.A.J.W.I.S.L.D.Q.> Z.Y.S.`.].S.^.G.D.l d.[.D.d.I.Y.Z.L.`.D.G G |.Y.F.W.S.S.S.F.m 1.*XH.S.}.D.S.D.Q.`./ x }.H.F.",
"@ 8 : > 8 * o 8 7 + y & 7 < 7 , 5 O z 5 7 @ w 5 e > < O < t 4 t 1 q 6 5 7 7 @ 1 > p # q t : 7 t * = 0 > 8 u @ 9 t + < e & > , < ",
"S 9X-XOX}.=X.X.X0X X[.v S.}.5XbX7X#X}.XX=Xm C.-XOX6X2X=X4XU.3XlXF X.+X`.OX5XOXpX-X|.W 2.sX-X6X`.}. X:XoX|.&.H bX|.9X4X7X*X4XnXL.",
"G tXI. XI.I.1XY.P.'.%X; -X:XU.F.L.|.J.*X`.> nX X^.7XL.^.*X X!..XW ^ cX}.}.|.H.I.J..XG 4.dXJ.1X{.2X}._.I.7X;.x lX_.'.R.'.D.3X Xw.",
"N wXd.f.d.s.e.g.A.f./.1 P.%Xd.d.f.B.k.e.J., XXD.y.K.d.f.s.A.s.}.B ) @Xw.d.v.h.S.w.=XM 5. X6.V.f.A.A.r.s.`.-.z gXs.g.s.S.D.s.l.u.",
"` xXoX|.P.;X|.I.9X.XXXC 2XOX|.qX.X1XoXvX5XM U.MX X3XU.-XT.1XU.zXE c.zXvX7X5X}.U.oXwXQ e.kXoX4X}.I.5XqX9X8X0.Q zX}.qX*XI.oXoXBXS.",
". M i M M j d F z a i   M a m m Z d B m 8   V z p x M f Y B z B . q x z m M f Z m N . > N m M a j N m 8 S 3 . B M m 9 Z j i m 8 ",
"&.+.*.4.4.R 7 4.' &.&.-.u.&.7.+.} : Q &.5.;.$.4.*.z.+.> _ +.$.+.@.:.<.7.+.+.m c 3.7.;.&.@.+.] 8.4 G 8.] q.@...6.3.@.z.L 6 +.$.3.",
"hXsX.XrXtX9.G AX0XsX8XqXpX7XyX8XvXz 8XdX7XsX5XyX.XVX7Xx 5XpXwX7XpX.XeXdXwXCX_ _ PX5XwXpXpXwX6XhXS A.KX9XeXpXiX8X8X7XyXu.D AXoXhX",
"e.f.d.e.J.O.i NXA.s.e.A.d.w.V.d.H.+ =XD.6.g.d.w.w.D._.: -X_.A.s.d.6.A.d.w. XB o.iXw.B.s.d.A.s.}.a 6. X6.e.A.l.q.A.6.F.>.m dX4.A.",
"I.XX|.S.*X6.P hXI.F.T.1X XXXY.`.&X7 F.5XoXJ.P.&XoX}.}.9 9X}.P.XXY.[.oX}.J.7XW O.pXQ.5X`.[.P.`.8Xm w.NX`.XXL.XXY.}.`.6X..M AX&XF.",
"7.#.<.#.c.G < 6.@.X.z.<.%.;.] @.` 2 } 3.7.;.q.) 7.O.@.h <.@.1.O.3.@.+.O.} 9.0 a u.{ 6.O.;.3.*.4.2 ! 9...8.3.@.+.&.O.q.R 4 q.;.+.",
"# m M m S V s x N m N h C B m C i N v m L   s S N B c J u a Z M > 1 F z F x s V i W & 1 F K l a Y i S V m s & B m M p S x a x m ",
"D NXIXNXhXpXaXhXCXcX7Xv |.kXzXzXKXpXzXdXpXF .XZXkXxXuXjXVXzXZXSX~ #.KXNXkXjXpXjXzXSX^ B.SXCXuXiX8XJXkXVXKXj.D DXpXAXNXhXhXKXZXI.",
"F sXB.w.S.S.S.S.e.L.`.- OX[.V.S.V.S.J.A.H.= -XS.s.d.e.A.].d.e.`.B W MXe.s.D.g.S.s..Xm 8..Xw.S.^.L.H.e.B.Y.` 8 zXj.V.e.S.S.e.S.w.",
"L fXS./.H.G.A.j.d.S._.- >X].e.F.S.D.g.`.;X< +XOXH.D.S.A.S.S.D.+XP ( zXD.g./.k.A.g..Xx p.iXj.D.g.V.M.D.F.XXO.J kXh.F.J.D.d.G. Xh.",
"x qXR.%XD.J.`.S.XXY.D.8 d.;X!.F.Y.{.H.S.H.6 S.`.K.S.Y.!.F.I.S.XXM ~ oXI.J.F.[.1X[.oXE 6.5X<XF.F.I.{.D.S.-X[ M 9XH.S.L.].].oX`.6.",
"@ 9 = > 7 2 @ 7 : = >   > 7 = : 5 & 7 > : $ 8 < : , y % , u : , o @ 6 5 0 5 @ > + >   # : 1 + 7 @ 1 > : 0 1 O 6 w - 5 *   6 > 1 ",
"'.J.'.}.oX@.M oX'.Y.}.>X!.F.[.>XF.t V.}.OX&XF.&X3X}.g.b g.I.I.oX6X}.I.`.[. XP L pXT.oX`.9X9XJ.5Xm 1.dX{.D.I.>XF.D.F.7X%.M 7XXX].",
"U.,X XP.0Xy.x cX`.vXL.'.~.|.oX`.+X+ 0X|.S.8XI.!.P..X/.n :X-XI.|.P.].&X`.Y.pXW ) kXL.|._.I.I.$X8XN r.8X`.*X1XF.Y.oXT.6X;.M hXT.I.",
"A.k.d.q.Y.$.a pX6.Q.e.A.h.A.E.f.%X+ T.D.e.V.f.e.r.D.G.5 }.J.B.s.A.d.d.B.m.|.B / .XB.A.f.d.e.s.XXa r. Xi.j.B.e.r.B.D.F.-.x BXs.B.",
".X]..XbXbX<.F hX XoX}.@X'..XU.@XJ.M U.+X-XW.'.BX&X.XXXF .XOXoX#X}.OXXX5X<XvX) $.JX|.}.`.|.+X'.aXM E.NXXX*X.X=X+XoX}.}.8.W pX}.-X",
"d C l 8 M 5 X S m l M d Y B l m z X 8 8 B d F 6 9 z m   M M z M a a M M m x + : z x Y s S C 8 F X 0 N z S N p m Y m x w X S m V ",
"z G.A.u.s.g.m.w.s.t.s.8 ] h.t.s.d.a.b.g.9.8 q.m.6.e.M.:.D.g.w.d.S H N.w.k.A.k.s.h.v.S ^ G.N.r.w.f.h.s.e.C.~ C A.p.w.d.M.p.d.s.+.",
"G zX7X XiX7X|.qX.X8X@X5 }.gX7X7X8X.X-XwXXX8 8XMX9X6XqX.X7X7X+XjXW ] HX}.7XpX+X7X@XhXG s.lX.X8X.X7X+X X0XZX&.D cXOX5X6X7X.X|.7XD.",
"R -Xw.6.g.g.e.l.w.G./.X <X%Xe.d.d.s.j.d.k.< -Xd.w.B.s.A.e.e.k.P.L / BX6.w.g.s.B.5.oXm n..X6.G.f.d.l.6.e.oXX.8 iXp.A.j.s.s.w.J.8.",
"G hX.X|.P.}.U.U.|.U.}.s eX}.U.|.U.D.1X9XOXl U.8XI.U.`.6X5X}.'.eXW O.jX}.6XXXY.1XXXtXS w.rXY.2X`.L.oX}.P.U.6.W PX`.1X|.|.|.I.6Xg.",
"2 +.) #._ ,.;.( o.( ..h ' ..../ ) >.' ^ o.. ) ` -.}  .` -.P  .<.q d <.I +.I ..+.P 3.* A 3.-._ o.%.( / -.O.K o ] -._ { ( ( { ] U ",
"S M D M M m O F B x A / p H Z S D % N M D U x H F M J h S G x H S K M F S W > > J s D N K C N F 2 > F S H C ~ D S N E f % E a D ",
"8XCXhXzXHXj.G HXhXxXVXtXiXxXVXjXBXl }.KXMXgXaXiXdXZXgXS |.zXhXBXhXgX8XgXBXNXX.X.PXnXFXhXZXuXpXFXS M.UXiXBXsXaX.XyXUXxX5.E PXNXZX",
"I.s.6.d.D.X.a sX6.D.g.d.^.A.h.d.D.= }.F.V.S.J.B.w.D.^.= %X_.d.s.S.g.S.A.e.XXS )  Xr.S.d.s.q.f.OXm 6.|.w.S.S.S.d.A.u.D.>.c iX5.S.",
"V.[.D.S.oX&.M lXD._.g.S.D.S.H._.{.7 |.}.F.d.j.F.D.I.`.l -XF.F.D.d.g.F.`.F.XXW ' pXG.A.g.J.}.W.OXa w.aXD.S.S.S.H.F.H.}.@.D aXA.L.",
"S.D.f.S.J.{ v T.S.A.A.Q.S.S.S.S.m.> e.W.D.f.H.d.j.H.A.x e.A.Q.d.S.H.B.d.l.M.L L I.K.l.H.F.S.C.S.9 <.&Xh.A.[.l.g.A.Q.D.~ v F.Q.A.",
"* < + < > * * 5 5 , 2 h < u 5 , 3 $ 8 0 9 O w 7 y > 7 & 0 u w < @ q 8 5 u 9 * 1 : s O # < : > t g = 7 : 6 w & 8 t 4 3 e * : 0 , ",
"b mXnX5XrXsX8XhXmX@X$XD S.+X9XbXpXiX X5X+XN Z.BXsX2X2X:XeX6X3XlXP #.dX+XiX8X7XrXBXdXQ q.dXGXyX+XiX7XiXsXrX3.F uX.X6XmXiXnX0XuXL.",
"K 7X`.`.F.D.|.H.Z.'.%X; }.:XL.S.S.I.].Y._., vX Xf.I.L.^.L.`.W..XG ~ MXK.`.Y._.I.S..XD 6.iXK.P.`.L.U.H.D.8X%.i jX^.S.W.`.F.Y.I.u.",
"Z wXd.k.g.f.B.l.V.d.%X: 1X_.d.d.k.B./.d.W.2 &XD.f.v.S.d.i.D.e.{.B o.@Xw.d.v.h.S.w.OXM 6.@Xw.V.g.A.^.f.e.`.-.i aXu.j.h.S.K.w.l.p.",
"^ tX|.}.U.;X5X|.vX X&XM 1X{.XXOXoX|.oX9X1XM U.zX.X3XP.qXXXU.1XdXE z.zXvX7X1X}.U.XX-XW j.dX;XvX`.Y.I.-XvX5X0.Q rXI.bXT.I.3X|.bXA.",
". m i m z d u M 8 p 7   x p 8 i i d m 8 8   m l u z 8 d s z z i . 1 l 8 i m p Z 8 i   : i 9 V p j 8 m 8 z > . m i i 8 a d 8 i 5 ",
"n.8.:.6.6.R u 6.4.u.9.:.d.u.r.6.&.< _ x.a.n.x.0.@.b.+.7 } 5.b.5.i.n.4.8.@.8.A Y w.r.c.p.6.3.0.k.y W f.x.6.9.&.a.5.n.b.L 6 9.8.8.",
"8X+X.X8XuX9.G AX6XpX1X7X6X7XeX8X5Xz 0XMX7XiX|.nX.XyX7Xl 2XsXwX7XpX.X6XwX7XzX^ _ PX5X6X8X8X6X6XhXB V.lX.X8XrX7X7X6XqXVX5.b ZX|.wX",
"e.f.d.e.XX#.i CXs.i.w.d.s.u.j.f.%X: ;XF.w.g.d.w.s.A.].+ *X{.w.d.d.6.A.d.w. XF o.gX6.d.s.f.g.s.`.d r.&X4.e.S.d.w.d.w.L.>.z NX6.d.",
"I.XX|.S.oX4.F 8XF.g.!.U.%XJ.!.`.oX7 S.5X}.J.L.OXY.I.}.3 1X}.S.XXL.].|.}.J.7XW O.pXQ.|._.$XL.[.wXx q.BX`.T.S.`.Y.I.J.6XO.x AX}.S.",
"6.&.6.8.b.~ u d.6.@.m.2.n.4.t.u.+.y @.w.0.,.e.=.z.6.y.k q.y.9.z.4.y.3.5.c.m.V Z d.} B.5.x.q.5.e.a W u.5.6.@.y.3.p.&.B. .w B.8.8."
};
