/* XPM */
static char *a55bb94a4a9e4ef9e7c3395140156a76pU5T6ccxRryct3O3[] = {
/* columns rows colors chars-per-pixel */
"64 64 146 2 ",
"   c #AEC5D7",
".  c #ABC7DF",
"X  c #AEC8DF",
"o  c #B5CCDE",
"O  c #AECBE5",
"+  c #AFCDE9",
"@  c #B3CEE6",
"#  c #B8CEE3",
"$  c #B2CFE9",
"%  c #B5D0E6",
"&  c #BCD2E6",
"*  c #B5D2EB",
"=  c #BBD5EC",
"-  c #BED8EF",
";  c #BBD6F1",
":  c #BED9F2",
">  c #C1D5E7",
",  c #C3D9E7",
"<  c #C1D7EC",
"1  c #C4DAEE",
"2  c #C9DDEE",
"3  c #C1D6F1",
"4  c #C4DCF3",
"5  c #C9DEF3",
"6  c #C4DFF9",
"7  c #CDE0EF",
"8  c #D1E2EE",
"9  c #C7E0F6",
"0  c #CCE2F5",
"q  c #C6E1F8",
"w  c #CCE4F9",
"e  c #CFE9FF",
"r  c #D2E5F5",
"t  c #D5E8F6",
"y  c #D9E9F6",
"u  c #D8EAF6",
"i  c #D9EBF7",
"p  c #DAEAF7",
"a  c #D8E8F5",
"s  c #DAECF6",
"d  c #DAEBF7",
"f  c #D0E5F8",
"g  c #D2E4F8",
"h  c #D1E6F9",
"j  c #D0E7F9",
"k  c #D2E7F8",
"l  c #D0E6FB",
"z  c #D2E7FA",
"x  c #D4E7F8",
"c  c #D1E7FC",
"v  c #D0E6FD",
"b  c #D2E6FA",
"n  c #D3E8F9",
"m  c #D1E8FA",
"M  c #D3E8FB",
"N  c #D2E9FB",
"B  c #D5E8F9",
"V  c #D6E9F8",
"C  c #D7EAF9",
"Z  c #D4E9FA",
"A  c #D6E9FA",
"S  c #D5EAFB",
"D  c #D7EAFB",
"F  c #D6ECFA",
"G  c #D7EDFB",
"H  c #D3EAFC",
"J  c #D3E9FE",
"K  c #D0EBFF",
"L  c #D4E9FC",
"P  c #D7E9FD",
"I  c #D5EAFD",
"U  c #D4EBFD",
"Y  c #D6EBFC",
"T  c #D4EAFF",
"R  c #D6EBFE",
"E  c #D7ECFD",
"W  c #D6EDFF",
"Q  c #D5EFFF",
"!  c #D5E9FB",
"~  c #D8E9F9",
"^  c #D8EAF8",
"/  c #D9EBF9",
"(  c #DBEBF8",
")  c #D8EBFA",
"_  c #DAEBFB",
"`  c #DBEDF9",
"'  c #D9ECFB",
"]  c #DAECFA",
"[  c #DBEDFB",
"{  c #DCECF9",
"}  c #DDEFF9",
"|  c #DDEFFB",
" . c #DEEEFB",
".. c #D8EBFC",
"X. c #D9ECFD",
"o. c #DBECFC",
"O. c #DBEEFC",
"+. c #DBEEFD",
"@. c #D8EDFE",
"#. c #D8EDFF",
"$. c #DAEDFE",
"%. c #D9EEFF",
"&. c #D8EFFF",
"*. c #DBEEFF",
"=. c #DAEFFF",
"-. c #DCEEFC",
";. c #DCEFFD",
":. c #DDEFFD",
">. c #DEEEFD",
",. c #DDEEFE",
"<. c #DAEDFD",
"1. c #DEF0FA",
"2. c #D9F0FF",
"3. c #DBF0FF",
"4. c #DDF0FE",
"5. c #DDF0FF",
"6. c #DCF1FF",
"7. c #DEF0FE",
"8. c #DFF0FF",
"9. c #DEF1FF",
"0. c #DFF1FF",
"q. c #DFF2FF",
"w. c #DEF3FF",
"e. c #DFF5FF",
"r. c #DDF1FF",
"t. c #E1F1FE",
"y. c #E0F0FF",
"u. c #E0F2FF",
"i. c #E0F3FF",
"p. c #E1F3FF",
"a. c #E3F3FF",
"s. c #E2F4FF",
"d. c #E3F5FF",
"f. c #E5F5FF",
"g. c #E4F6FF",
"h. c #E5F7FF",
"j. c #E2F4FF",
"k. c #E6F8FF",
"l. c #E6F9FF",
"z. c #E7F9FF",
"x. c #E7F9FF",
"c. c #E8F8FF",
"v. c #E8F9FF",
"b. c #E9F9FF",
"n. c #EAFAFF",
"m. c #EBFBFF",
/* pixels */
"e K w w P P 5 1 4 - 4 - = 4 < w z 9.v.t ) ,.' ) ,.,.k.r t u y.8 ' s 9.y.0 0 0 w w e w w z K 0 5 9 P w 0 3.w   5 9.z z z B P f x ",
"w e w 9 f B z 9 5 4 4 = 4 w = 4 w B o.t ) 9.9.' y.f.9.y.r u u u f.f.k.9.5 5 5 w w 9 w w w w w 5 0 M w z Q M o M P P P z B o...0 ",
"w w v 9 2 0 P w 5 = = : 4 e 9 < 5 0 B f f t ,.9.f.,.y.9.,.f.t i '  .,.u 5 0 5 9 9 4 5 w 5 9 w 9 z w 9 0 P z & B M P f M P B ..f ",
"w 9 w w 0 5 z z e = 4 5 = e w = < 1 3.,.f r f ' ' 9.y.,.s.,.9.i a 1.9.r 2 2 1 4 5 5 9 w 9 9 0 9 0 1 1 1 M z 1 M o.o.z M B ..o.o.",
"5 9 0 v z z w M e 9 q 9 4 e 9 < < < o.Q f F r ' ) ' y.) i f.t i k.k.9.7 5 5 4 4 4 w w 9 w w 9 0 0 5 9 w M o.0 P o.o.o.0 0 o.o.B ",
"4 9 9 w f M 0 0 w 5 4 q 9 w 9 4 4 < P P f o.r B 9.y.a  .i y.y. .s.s.o.7 0 9 4 4 4 w 9 4 w w 5 0 5 0 0 P 5 P 1 f o.B ..f f B f B ",
"5 5 9 w 5 0 w 9 w 4 4 w 4 5 : = % - w Q P B 7 r ' '  .i i ) v.v.a i 9.r 0 2 4 4 4 5 4 4 0 0 5 0 w z w o.B 9.f o.9.) B B B x t o.",
"w 4 0 w 5 4 z z 4 5 < 4 9 4 = 4 * 4 4 w v w f ) t i t a a i v.y.i 8 a r 3.o.z 4 5 4 4 5 9 0 0 w P 0 0 z o.o.f x o.9.B f f f o.B ",
"5 5 5 w w 5 4 5 4 w e = 4 e = @ : * = w w M z F t r u ,.i i y.v.' t o.) 9.9.e.< 4 5 w 4 < w 4 4 9 0 5 f o...B 5 ) r B f 0 B B o.",
"w 4 4 4 4 4 4 4 < 5 Q w * 4 = * : * = 4 e T M f 0 B ,.y.i 8  .k.s.,.' ) o.o.Q 4 4 = 4 9 w 5 5 4 9 9 5 z B B B B t t o.B f B x o.",
"5 4 5 5 4 4 9 9 4 w K e - 5 : ; * * : - 9 w z 0 0 7 0 u t u y.,.,.o.f f w w 0 5 = 5 w w 9 4 z 9 K w z z f f x o., f B B 0 f w B ",
"0 < - 4 5 5 5 - z P w 5 = 4 = * * * 4 = 4 9 K z o.0 ..o.r ' s.' ' ,.f 0 1 4 4 < < w 5 5 = 5 z 5 9 5 0 9 9 f t ,., t B ..f f w B ",
"z < < 5 5 4 4 : < 4 5 5 4 : 4 ; * * ; * - 5 K M P f ,.B 0 ) ) t B ,.o.w 5 9 e 4 5 4 4 5 = 4 4 w 4 4 0 5 9 z x ..r o...B z z 0 z ",
"z 4 5 5 4 ; 4 w w w 4 < 4 4 : ; * + * $ * = w v z M x 0 o.s.t u f B P 9 5 9 T 9 4 = 9 4 4 - = w e w z 0 0 M x f B B ) x z 0 0 0 ",
"K 4 < 4 4 : 4 9 4 5 < 1 e w = O ; $ * * * * 4 v 4 z f 0 B B f f z z w 4 5 4 5 : 4 = 4 = 5 q = 4 9 w 9 0 w z B f B f o.B z 0 w K ",
"K w 4 4 4 4 : 4 w 5 9 w = 4 : * : + O * = = = 9 4 w w P B B 9.f z z 5 4 e 4 4 4 - : = = : 5 * 5 w 9 5 0 w w P B f 2 o.x z 5 0 P ",
"z z w 4 : 4 4 = w w 5 w : 4 * = : $ * O * = = 4 5 e K o.B 0 t ..f 5 w 4 e 4 = : : 4 4 5 9 < = 5 5 0 9 w 0 Q o.z z 5 o.B f x f f ",
"w w 5 : : : 4 : 4 : * 4 4 : q * * $ * ; * * @ 4 9 4 9 4 f ..t x x z 9 5 e e w = ; 4 = 4 w 5 4 - 1 4 9 9 0 z M 0 P 0 f 9.,.f f t ",
"0 0 5 : : : : : - 4 4 5 = * 4 * * * $ * * * * : q 9 < 4 z f ) ..x z 5 9 9 e e * = 4 = 4 9 4 9 5 4 5 w 9 z 0 w w 0 P f Q B f x 0 ",
"5 0 9 4 - : : : 5 4 4 - * : : ; : ; + O * * = = q w 5 w P z ....t B 0 0 5 5 w 4 4 4 * = 4 5 9 4 5 0 z w w 9 9 z z w 0 B ) o.f f ",
"5 0 w 9 4 : : : : : 4 - : q ; * : ; * * * O * = 5 5 K 1 0 3.0 f f f 0 1 4 < 5 e 5 5 5 : 4 w 4 4 4 5 0 0 9 9 1 z P 0 1 f o.9.B f ",
"5 z K w 5 4 - = * - 4 = q : : * : : * ; + + = : = 5 w 4 0 P 5 f 0 0 w 5 9 5 < 4 w w e 4 = 5 4 w < 4 0 0 5 0 1 w M M 5 w f f B f ",
"9 z K w 9 4 = = : * * @ : : q : = : ; * O * : = = 5 - 9 P 0 f z 5 f f Q Q M 4 & 9 5 9 < < 5 5 9 4 5 w 9 5 z w w P z w M f 0 B B ",
"5 0 w w w 9 4 = = @ : = @ = ; : @ @ ; = @ O * * = : % 4 Q o.z 5 0 f 0 s.3.P 9 = - 5 w w 5 5 w 9 5 5 v 4 4 w z w w 5 z , 5 9.9.f ",
"5 9 9 K w 4 5 - : = * : : * ; ; * . = = O : @ @ @ : = 4 z v 9 5 0 B f B e.o.w 5 5 4 w 4 5 = 4 5 4 4 0 9 z 9 9 0 9 5 0 z M 9.z f ",
"0 z 0 w z w w 4 5 = @ = : ; ; = = * * : 4 * @ * $ = w * w v 0 9 0 f B o.o.o.v < 5 5 5 < < 4 5 w 4 4 5 9 w 0 0 w z z M 0 f 9.B f ",
"w w 4 4 v o.v 4 = - : ; : 6 : * = = = q : * q : @ q q 4 5 5 z w w 0 0 M z 0 5 < 4 4 5 5 4 9 4 5 9 9 9 w w v v v 0 0 w 5 0 P o.z ",
"< 4 9 4 4 z v z : 4 4 * * 4 4 4 4 9 = : : : = = @ 4 4 w 4 < K 9 z P 0 0 w 0 4 w 1 5 w K 9 9 = 4 4 4 4 5 4 5 9 5 M 1 0 z f > 9 B ",
"4 = 4 4 1 0 v 9 4 % = : 4 : = 4 4 w 6 q 4 : O = : @ 4 4 5 5 v < 4 o.v 0 0 v 0 5 4 9 e w 5 9 4 5 9 w 5 9 4 9 w w 0 0 o.o.0 & 0 o.",
": - w w 1 5 v z 5 * $ = : = = 4 4 - : 4 : 4 : * 4 * - 4 4 9 K & < w w z 5 z w 4 4 5 w < 4 w w 4 9 w 4 4 4 5 w w 9 z o.z 5 > Q Q ",
"4 4 4 5 0 0 v w 4 : ; ; ; ; 4 = @ 4 = @ * * * = : : * 4 4 4 w 4 4 9 9 P w K w 9 4 5 w 4 5 w 9 - 9 w - = 0 0 w w Q z w M 9 & B Q ",
": w 5 4 5 4 0 w w 9 = = ; = 4 4 - = = 4 * : = : 4 * = * 5 4 4 w = z w K P o.0 5 < 4 9 9 9 9 9 w 5 w = = v z z 5 0 Q Q w < , e.3.",
"4 4 4 4 4 4 4 w e 9 = - - = = : : % 4 - 5 w 4 4 = ; * @ 4 4 4 w 1 9 f 0 3.9.x M 1 4 5 4 5 4 w 4 9 1 = 9 5 5 w w w z o.f 2 ' 9.y.",
"4 4 4 w 5 5 9 w K 4 * 4 = 4 4 4 : = : = : = = : : : ; ; * : : 4 M B B f 9.9.B o.w 0 1 5 w * * w 5 < 5 1 < z w w z 9 f 0 7 r 9.9.",
"4 4 5 w 5 w 5 < < < 4 < 5 = : : ; : - 4 9 = : 5 - 4 : = * : = 4 w z z 0 B f f t o.0 5 0 < = 4 4 4 1 v 0 4 K w v 0 0 0 z o.o.f.t ",
": 9 w q 5 w 5 = = 9 9 < 4 = = 4 4 4 = - q 4 4 4 = - = @ = = : = 5 w 0 w x 0 x f ....1 < 0 3.M < 4 9 9 z 5 < 0 w 0 z 0 B ) 9.y.t ",
"= 4 5 5 w w 5 5 K v w 9 4 4 4 : 5 5 4 * 4 5 4 5 4 = * * $ * q = < 5 5 0 0 1 x f 0 ) u 0 o.3.M 0 z z 5 K 9 = w w P 0 9 0 2 f t 9.",
"4 4 = = 5 4 4 e o.P M 1 w 4 4 = = 4 5 = 4 9 5 w 5 5 = : @ @ 4 4 5 w w w 9 5 o.B ) f f f 3.9.B 0 P w z P K 0 z w K 5 z 5 f ' ) ,.",
"w 5 = = 5 4 < 9 K 3.9 1 4 5 = 5 = 4 q 5 4 = 4 4 5 5 - - * % * q 5 5 w 0 9 0 9.B f 9.f 7 9.9.2 B 0 1 v w 0 5 5 0 w 0 Q w ,.f.o.t ",
"e q : - 5 w 9 5 w z w w w 9 4 4 4 q 5 5 4 * 5 4 w * 4 = = @ * 4 4 5 z M M o.s...r o.f B y.f.0 B w 1 w 4 = # < 0 z z M z f B r ) ",
"9 w 9 = w 5 w 9 1 P M M z 4 4 4 5 < 5 = 5 4 4 e - 5 5 5 4 * @ = < & 1 w z B o.f o.B x r ,.y.) r 0 f < z z 0 5 w P v 9 0 B 2 0 o.",
"4 w 4 X < w 4 4 5 P 3.Q z 9 1 4 4 = 5 e 4 4 w 4 - 4 w = : = 4 = < 1 w K z B o.o.f B x 5 ) y.) f x M z w z 0 5 5 5 z P P 0 2 ,.y.",
"w 4 % 4 5 4 5 5 < 9 o.o.B z 4 4 = < 4 w 9 5 9 5 - - 5 5 = 4 : = 4 9 0 w f f z M B ) B x f x ,.x 2 2 z z M z 5 4 z o.z 5 f f ) B ",
"< @ - 9 4 w w z 4 9 P o.z 9 1 1 5 w 5 = w w - 9 5 - 5 = = = 4 5 9 9 9 9 w w 0 0 f B 5 x z 5 f ,.t 2 0 P w z < = 5 z z 0 B B u o.",
"= w v w 1 = 9 0 v w w B z 2 5 5 4 4 4 % 4 5 4 < < 4 w 4 6 5 4 4 4 9 9 0 v z 0 w B 9 0 9.f 2 f ) ..0 2 w 0 z z 0 9 1 B z f ) 9.s.",
"9 4 w 9 w z 9 0 w w 9 M P f z 0 = 4 9 5 w 9 T 4 9 w 4 5 q q 4 4 4 9 9 9 v v w w z P x o.o.f 5 ) o.B Q 0 w z o.z M 5 B 9 r ,.) u ",
"1 z v w 5 4 5 4 9 w w w P P w 5 < w 9 9 w 4 w < 4 < 4 5 e = 3 * 4 4 5 9 w w 0 0 0 0 M f t t B o.t f 9.f M P o.M 5 z Q z o.' f 7 ",
"w o.9 5 0 w = 4 9 w w 2 z 3.z w 9 4 4 4 4 9 9 4 - 9 5 w 5 4 w 4 4 5 w 9 4 1 0 P P o.Q 9 f f t 9.,.u 9.B f P 0 0 P P Q o.B u 9.f ",
"K 4 0 0 9 e w 0 0 w w M z 3.M 9 < 4 5 4 4 w v w 5 4 5 4 4 w 5 4 5 4 9 9 9 9 M x ..o.9.f B f B f 9.F f B z z w K P Q B B B B o.o.",
"w 1 9 9 5 w w 0 5 Q M w w z 0 1 0 0 4 5 1 9 w v 9 9 9 4 < w 5 4 5 5 w w 0 9 f x ..f B o.o.x M f F s.0 0 5 5 w 9 0 z B B B f z ..",
"M 0 w w w K 5 1 & 5 0 f w w o.0 9 0 5 0 0 5 4 w 5 5 5 4 4 9 4 4 4 9 w K w 0 f ..o.B o...f B B 7 ) ,.o.B 0 9 5 5 P f 0 B 9.) x o.",
"K w 0 4 5 v w 0 5 < 5 z f f 3.z 5 9 w 9 Q 9 5 5 4 4 4 5 4 5 4 4 - - 4 w 5 5 0 o.o.f x o.B f M F B 2 B 9.M 0 1 5 M 0 0 t ) f 0 ..",
"f f z 5 1 0 z Q P w f 0 Q B f P w w w 4 v 9 0 w 5 5 4 5 4 4 4 4 4 4 < 0 5 1 5 ..B x x ..9.u f o.u r 7 o.o.0 f x B u B B ' ) f B ",
"f f P w 5 0 w P B f F 0 z o.B o.M K 9 4 4 9 9 w 0 w 5 4 < 9 w 5 w 9 4 0 0 4 2 x o.o.B f o.' u ) ) ' f 0 o.o.x o.B r f r t ,.) t ",
"f 2 0 5 4 w x P B x B t r ) B B M M 5 5 1 0 5 9 w z 5 9 4 9 z w 0 9 5 5 0 5 2 0 o.B 0 x B u B f.' t ) 5 P o.0 P B k 9.B r o.,.,.",
"k 2 f w 5 w z f ..9.f t o.) 0 B P z 0 5 5 0 w w z 0 4 w 5 4 9 w 0 w w 4 w 0 0 z x o.B o.7 f B y.y.0 f P z 9 v w M f 9.' f ' t 2 ",
"o.) f z x g f ..9.B ,.B u B 0 B M o.B 0 0 0 0 z P P z z 4 9 w 0 5 0 4 5 K 9 w z P 9.,.f r ,.u B s.M z o.0 w w z M 0 Q P 0 f f x ",
"f B o.B 5 g ..M x ..B ) o.B f f 5 9.P 5 5 5 5 z z w 9 K z z w 4 9 9 w w 9 5 v 0 0 z o.B ) ,.u t B B 0 z Q v 0 5 M M z M 0 0 B o.",
"k k B B f f z x o.B B ' u ) o.0 0 z B f 2 2 z w 0 0 9 M M P w 1 0 5 0 0 4 4 K 9 0 0 o.o.9.' ,.' u o.w 1 z w 5 & w 0 f w 0 z B s.",
"o.F f z o.M f P o.x 9.) 7 B o.x 0 , 9 o.f 0 P z 0 M M z 0 M P z P B z 0 5 4 9 9 0 0 ..9.,.,.y.y.u 2 2 0 z 9 9 w w o.f B P 0 B B ",
"k F w 5 z K f z x ..B 0 u ' f B ..0 0 o.,.f 0 z 9 f f 0 2 5 9 z B B Q M w 4 9 v 9 0 x 9.9.y.y. .9.u r , & 2 0 o.M o.o.o.9.) f ) ",
"0 w M 0 < 5 z 0 x o.0 0 u f B f ,.o.B o.o.f f f M z M Q P z 0 P 0 2 o.o.0 1 0 z w w 0 o.y.f.y.) 9.9.9.) 0 2 > f f ' f ' y.) ,.,.",
"Q 0 P P 5 1 f w f B B ,.r 2 B B f u B ) B B B f B f z B P P 0 M f 0 Q P 0 1 4 4 z z 0 B ,.9.y.,.a s.f.9.,.,.,.,.o.) ) u ) ) t ,.",
"o.w w P K w w w f 0 B 9.9.B x t f y.o.B 9.B 0 0 f f w 9 0 P w z x x z 0 P w 4 5 5 0 0 t o.r i 1. .} 9.k.s.) f.t ) ) ) u ) ) t ) "
};
